<?xml version="1.0" encoding="utf-8"?>
<!-- Generator: Adobe Illustrator 16.0.0, SVG Export Plug-In . SVG Version: 6.00 Build 0)  -->
<!DOCTYPE svg PUBLIC "-//W3C//DTD SVG 1.1//EN" "http://www.w3.org/Graphics/SVG/1.1/DTD/svg11.dtd">
<svg version="1.1" id="Layer_1" xmlns="http://www.w3.org/2000/svg" xmlns:xlink="http://www.w3.org/1999/xlink" x="0px" y="0px"
	 width="300px" height="300px" viewBox="0 0 300 300" enable-background="new 0 0 300 300" xml:space="preserve">
<path fill="#FFFFFF" d="M150,2.33C68.444,2.33,2.33,68.444,2.33,150c0,81.557,66.114,147.67,147.67,147.67
	c81.557,0,147.67-66.113,147.67-147.67C297.67,68.444,231.557,2.33,150,2.33z M150,269.268C84.13,269.268,30.732,215.87,30.732,150
	S84.13,30.732,150,30.732S269.268,84.13,269.268,150S215.87,269.268,150,269.268z"/>
<g>
	<path fill="#FFFFFF" d="M114.382,70.942l36.111,106.172h0.433l34.166-106.172h47.789v154.393h-31.787V115.919h-0.434
		l-37.842,109.416h-26.165L98.812,117H98.38v108.335H66.593V70.942H114.382z"/>
</g>
</svg>
